<?xml version="1.0" encoding="utf-8"?>
<!-- Generator: Adobe Illustrator 24.2.1, SVG Export Plug-In . SVG Version: 6.00 Build 0)  -->
<!DOCTYPE svg PUBLIC "-//W3C//DTD SVG 1.1//EN" "http://www.w3.org/Graphics/SVG/1.1/DTD/svg11.dtd" [
	<!ENTITY ns_extend "http://ns.adobe.com/Extensibility/1.0/">
	<!ENTITY ns_ai "http://ns.adobe.com/AdobeIllustrator/10.0/">
	<!ENTITY ns_graphs "http://ns.adobe.com/Graphs/1.0/">
	<!ENTITY ns_vars "http://ns.adobe.com/Variables/1.0/">
	<!ENTITY ns_imrep "http://ns.adobe.com/ImageReplacement/1.0/">
	<!ENTITY ns_sfw "http://ns.adobe.com/SaveForWeb/1.0/">
	<!ENTITY ns_custom "http://ns.adobe.com/GenericCustomNamespace/1.0/">
	<!ENTITY ns_adobe_xpath "http://ns.adobe.com/XPath/1.0/">
]>
<svg version="1.1" id="Layer_1" xmlns:x="&ns_extend;" xmlns:i="&ns_ai;" xmlns:graph="&ns_graphs;"
	 xmlns="http://www.w3.org/2000/svg" xmlns:xlink="http://www.w3.org/1999/xlink" x="0px" y="0px" width="2048px" height="2048px"
	 viewBox="0 0 2048 2048" style="enable-background:new 0 0 2048 2048;" xml:space="preserve">
<style type="text/css">
	.Drop_x0020_Shadow{fill:none;}
	.Round_x0020_Corners_x0020_2_x0020_pt{fill:#FFFFFF;stroke:#231F20;stroke-miterlimit:10;}
	.Live_x0020_Reflect_x0020_X{fill:none;}
	.Bevel_x0020_Soft{fill:url(#SVGID_1_);}
	.Dusk{fill:#FFFFFF;}
	.Foliage_GS{fill:#FFDD00;}
	.Pompadour_GS{fill-rule:evenodd;clip-rule:evenodd;fill:#44ADE2;}
	.st0{fill:#C0F2E5;}
	.st1{fill:#3D8F7D;}
	.st2{fill:#99D8CA;}
	.st3{fill:#FCAA81;}
	.st4{fill:#FFC0BB;}
	.st5{fill:#311F59;}
	.st6{fill:#16D5BB;}
	.st7{fill:#FD757E;}
	.st8{fill:#169CD5;}
	.st9{fill:#14375D;}
	.st10{fill:#FEB545;}
	.st11{fill:#F3A844;}
	.st12{fill:#11577B;}
	.st13{fill:#E26471;}
	.st14{fill:#2D97D5;}
	.st15{fill:#021162;}
	.st16{fill:#F4C6C1;}
	.st17{fill:#E86774;}
</style>
<metadata>
	<sfw  xmlns="&ns_sfw;">
		<slices></slices>
		<sliceSourceBounds  bottomLeftOrigin="true" height="1181.1" width="1731.5" x="158.2" y="-1614.5"></sliceSourceBounds>
	</sfw>
</metadata>
<linearGradient id="SVGID_1_" gradientUnits="userSpaceOnUse" x1="0" y1="0" x2="0.7071" y2="0.7071">
	<stop  offset="0" style="stop-color:#DEDFE3"/>
	<stop  offset="0.1783" style="stop-color:#DADBDF"/>
	<stop  offset="0.3611" style="stop-color:#CECFD3"/>
	<stop  offset="0.546" style="stop-color:#B9BCBF"/>
	<stop  offset="0.7324" style="stop-color:#9CA0A2"/>
	<stop  offset="0.9181" style="stop-color:#787D7E"/>
	<stop  offset="1" style="stop-color:#656B6C"/>
</linearGradient>
<g>
	<path class="st0" d="M344.2,1507.9h1328.6c0,0,289.8-459.4-10.6-593.7s-265,0-402.8-81.3s-197.9-268.6-643.1-81.3
		s-265,353.4-335.7,445.2C210,1288.8,142.8,1469,344.2,1507.9z"/>
	<ellipse class="st0" cx="1033" cy="1539.5" rx="856.8" ry="75"/>
	<g>
		<path class="st1" d="M1477.8,1451.1c0,0,84.9-107.4,160.9-136.9c76-29.5,90-63.6,105.5-107s51.2-90,51.2-90s-34.1-10.9-86.9,41.9
			c-52.7,52.7-40.3,58.9-74.5,71.4c-34.1,12.4-24.8-7.8-57.4,18.6c-32.6,26.4-34.1,31-46.5,55.8c-12.4,24.8-49.6,108.6-49.6,102.4
			c0-6.2,20.2-79.1,41.9-113.2s15.5-49.6,45-72.9c29.5-23.3,32.6-26.4,57.4-52.7c24.8-26.4,17.1-7.8,52.7-76
			c35.7-68.3,41.9-86.9,48.1-113.2c6.2-26.4,6.2-40.3,6.2-66.7c0-26.4-1.6-46.5,0-69.8c1.6-23.3-6.2-34.1-3.1-55.8
			s10.9-43.4,10.9-43.4s-51.2,27.9-68.3,77.6s-20.2,43.4-41.9,90s-15.2,54.5-15.2,91.8c0,37.2,7.4,35.4-17.4,100.6
			c-24.8,65.1-23.3,60.5-32.6,80.7c-9.3,20.2-6.2,10.9-20.2,37.2c-14,26.4-45,93.1-41.9,83.8s52.7-122.5,63.6-167.5
			c10.9-45,12.4-54.3,14-97.7s-3.1-45-4.7-77.6s0-48.1-4.7-69.8s-21.7-26.4-20.2-40.3c1.6-14-29.5,63.6-38.8,107
			c-9.3,43.4-17.1,41.9-14,77.6c3.1,35.7,1.6,37.2,3.1,60.5c1.6,23.3,3.1,23.3,3.1,37.2c0,14,0,17.1,0,38.8s-3.1,32.6-4.7,54.3
			c-1.6,21.7-21.7,121-21.7,108.6c0-12.4-4.7-35.7-6.2-99.3c-1.6-63.6-14-88.4-10.9-135c3.1-46.5,21.7-125.6,35.7-166
			c14-40.3,18.6-46.5,41.9-80.7c23.3-34.1,86.9-82.2,96.2-111.7c9.3-29.5,21.7-74.5,21.7-74.5s-41.9,85.3-77.6,111.7
			c-35.7,26.4-35.7,26.4-66.7,58.9c-31,32.6-35.7,31-49.6,52.7c-14,21.7-18.6,21.7-21.7,41.9c-3.1,20.2-9.3,43.4-9.3,79.1
			c0,35.7-23.3,82.2-17.1,114.8s7.8,24.8,10.9,49.6c3.1,24.8,10.9,45,15.5,48.1C1444.8,1228.9,1439.4,1420.4,1477.8,1451.1z"/>
		<path class="st2" d="M1777.2,1496.1c0,0,179-232.2,53.2-200.8c-125.8,31.5-116.1,62.9-116.1,62.9s116.1-142.7,14.5-116.1
			S1557,1365.4,1557,1365.4s-21.8-162.1-106.4-75s-162.1,205.6-162.1,205.6h486.3"/>
	</g>
	<g>
		<path class="st1" d="M553.3,1451.1c0,0-84.9-107.4-160.9-136.9c-76-29.5-90-63.6-105.5-107s-51.2-90-51.2-90s34.1-10.9,86.9,41.9
			c52.7,52.7,40.3,58.9,74.5,71.4c34.1,12.4,24.8-7.8,57.4,18.6s34.1,31,46.5,55.8c12.4,24.8,49.6,108.6,49.6,102.4
			c0-6.2-20.2-79.1-41.9-113.2s-15.5-49.6-45-72.9c-29.5-23.3-32.6-26.4-57.4-52.7s-17.1-7.8-52.7-76
			c-35.7-68.3-41.9-86.9-48.1-113.2c-6.2-26.4-6.2-40.3-6.2-66.7c0-26.4,1.6-46.5,0-69.8c-1.6-23.3,6.2-34.1,3.1-55.8
			c-3.1-21.7-10.9-43.4-10.9-43.4s51.2,27.9,68.3,77.6s20.2,43.4,41.9,90c21.7,46.5,15.2,54.5,15.2,91.8c0,37.2-7.4,35.4,17.4,100.6
			c24.8,65.1,23.3,60.5,32.6,80.7c9.3,20.2,6.2,10.9,20.2,37.2s45,93.1,41.9,83.8s-52.7-122.5-63.6-167.5
			c-10.9-45-12.4-54.3-14-97.7s3.1-45,4.7-77.6s0-48.1,4.7-69.8s21.7-26.4,20.2-40.3s29.5,63.6,38.8,107c9.3,43.4,17.1,41.9,14,77.6
			c-3.1,35.7-1.6,37.2-3.1,60.5c-1.6,23.3-3.1,23.3-3.1,37.2c0,14,0,17.1,0,38.8s3.1,32.6,4.7,54.3c1.6,21.7,21.7,121,21.7,108.6
			c0-12.4,4.7-35.7,6.2-99.3c1.6-63.6,14-88.4,10.9-135c-3.1-46.5-21.7-125.6-35.7-166s-18.6-46.5-41.9-80.7
			c-23.3-34.1-86.9-82.2-96.2-111.7c-9.3-29.5-21.7-74.5-21.7-74.5s41.9,85.3,77.6,111.7c35.7,26.4,35.7,26.4,66.7,58.9
			s35.7,31,49.6,52.7s18.6,21.7,21.7,41.9c3.1,20.2,9.3,43.4,9.3,79.1c0,35.7,23.3,82.2,17.1,114.8c-6.2,32.6-7.8,24.8-10.9,49.6
			c-3.1,24.8-10.9,45-15.5,48.1C586.3,1228.9,591.7,1420.4,553.3,1451.1z"/>
		<path class="st2" d="M256.3,1496.1c0,0-179-232.2-53.2-200.8c125.8,31.5,116.1,62.9,116.1,62.9s-116.1-142.7-14.5-116.1
			s171.8,123.4,171.8,123.4s21.8-162.1,106.4-75S745,1496.1,745,1496.1H258.7"/>
	</g>
	<path class="st3" d="M1097,680.5c12.7,12.7,39.6,4.9,44.4,3.4c11.4-9.4,26-15,42-15c36.5,0,66.1,29.6,66.1,66.1
		c0,36.5-29.6,66.1-66.1,66.1c-17.6,0-33.6-6.9-45.4-18.1c-20.1-11.1-35.5-2.5-45.4,7.7v145.1h147.3c10.7,9.7,20.6,25.5,9.1,46.5
		c-11.2,11.8-18,27.7-18,45.2c0,36.3,29.4,65.8,65.8,65.8c36.3,0,65.8-29.4,65.8-65.8c0-15.8-5.6-30.4-14.9-41.7
		c-1.5-4.7-9.3-31.5,3.3-44.2c2.2-2.2,4.4-4.1,6.5-5.8h151.3V708c0-104-84.3-188.4-188.4-188.4h-227.7v156
		C1093.8,677.2,1095.3,678.8,1097,680.5z"/>
	<path class="st4" d="M1506.7,706.5c0,0,0.8-8.4-0.5-12.4c-1.3-4-6-10.3-5.3-14.3c0.7-4,2-7.3,3.7-4.6c1.7,2.7-1.3-12-1.3-12
		s-0.7-10,5.3-1.7c6,8.3,9.6,27.6,10,32.9c0.3,5.3,1.7,18.3,1.7,18.3s-7,6.6-8,6C1511.1,718.1,1506.7,706.5,1506.7,706.5z"/>
	<path class="st4" d="M1384.9,719.5c0,0-4.3-7.3-4.8-11.4c-0.5-4.2,1.1-11.9-1.2-15.2c-2.3-3.3-4.9-5.8-5.3-2.7
		c-0.4,3.1-3.9-11.4-3.9-11.4s-3.6-9.3-5.5,0.7s3,29,4.9,34c2,5,6.2,17.2,6.2,17.2s9.1,3.1,9.8,2
		C1385.8,731.9,1384.9,719.5,1384.9,719.5z"/>
	<path class="st5" d="M1454.8,1524h78l-4.9,33.8l3.8,0.5l47.6-326.2l44.7,323.3l3.8-0.5l-9.6-69.2l83.9-0.5l12,73l3.8-0.6
		l-74.9-457.1h18.3v-15.6h-168.5v15.6h22.5l-68.8,451.5l3.8,0.5L1454.8,1524z M1497.1,1246.5h76.3l-13.1,89.7l-76.4-2.7
		L1497.1,1246.5z M1559.8,1339.8l-13,89.4l-77.2-1.3l13.8-90.7L1559.8,1339.8z M1519.3,1100.6h41.9l8.7,63.3h-60.3L1519.3,1100.6z
		 M1573.8,1163.9l-2.1-15.2h15.9l-2.2,15.2H1573.8z M1584.9,1167.6l-5.4,37.1l-5.1-37.1H1584.9z M1565.1,1100.6h29.6l-6.5,44.4
		h-16.9L1565.1,1100.6z M1639.2,1100.6l7.3,44.4h-54.4l6.5-44.4H1639.2z M1595.4,1319.7l-12.5-90.7h77.4l14.9,90.7H1595.4z
		 M1675.7,1323.4l12,73.2H1606l-10.1-73.2H1675.7z M1617.8,1482.1l-11.3-81.7h81.8l13.3,81.3L1617.8,1482.1z M1581.4,1218.4
		l10.2-69.7h55.6l12.5,76.5h-77.3L1581.4,1218.4z M1577.5,1218.4l-3.6,24.4h-76.2l11.4-75.1h61.3L1577.5,1218.4z M1455.4,1520.3
		l13.5-88.8l77.3,1.3l-12.8,87.4H1455.4z"/>
	<path class="st6" d="M714.3,1018.9c12.7-12.7,4.9-39.6,3.4-44.4c-9.4-11.4-15-26-15-42c0-36.5,29.6-66.1,66.1-66.1
		c36.5,0,66.1,29.6,66.1,66.1c0,17.6-6.9,33.6-18.1,45.4c-11.1,20.1-2.5,35.5,7.7,45.4h145.1V876.1c9.7-10.7,25.5-20.6,46.5-9.1
		c11.8,11.2,27.7,18,45.2,18c36.3,0,65.8-29.4,65.8-65.8s-29.4-65.8-65.8-65.8c-15.8,0-30.4,5.6-41.7,14.9
		c-4.7,1.5-31.5,9.3-44.2-3.3c-2.2-2.2-4.1-4.4-5.8-6.5V607.3H741.8c-104,0-188.4,84.3-188.4,188.4v227.7h156
		C711,1022.1,712.7,1020.6,714.3,1018.9z"/>
	<path class="st7" d="M932.2,1335.9c-12.7-12.7-39.6-4.9-44.4-3.4c-11.4,9.4-26,15-42,15c-36.5,0-66.1-29.6-66.1-66.1
		c0-36.5,29.6-66.1,66.1-66.1c17.6,0,33.6,6.9,45.4,18.1c20.1,11.1,35.5,2.5,45.4-7.7v-145.1H789.4c-10.7-9.7-20.6-25.5-9.1-46.5
		c11.2-11.8,18-27.7,18-45.2c0-36.3-29.4-65.8-65.8-65.8s-65.8,29.4-65.8,65.8c0,15.8,5.6,30.4,14.9,41.7c1.5,4.7,9.3,31.5-3.3,44.2
		c-2.2,2.2-4.4,4.1-6.5,5.8H520.6v227.7c0,104,84.3,188.4,188.4,188.4h227.7v-156C935.3,1339.1,933.9,1337.5,932.2,1335.9z"/>
	<path class="st8" d="M1331.4,1085.1c-12.7,12.7-4.9,39.6-3.4,44.4c9.4,11.4,15,26,15,42c0,36.5-29.6,66.1-66.1,66.1
		s-66.1-29.6-66.1-66.1c0-17.6,6.9-33.6,18.1-45.4c11.1-20.1,2.5-35.5-7.7-45.4h-145.1v147.3c-9.7,10.7-25.5,20.6-46.5,9.1
		c-11.8-11.2-27.7-18-45.2-18c-36.3,0-65.8,29.4-65.8,65.8s29.4,65.8,65.8,65.8c15.8,0,30.4-5.6,41.7-14.9
		c4.7-1.5,31.5-9.3,44.2,3.3c2.2,2.2,4.1,4.4,5.8,6.5v151.3h227.7c104,0,188.4-84.3,188.4-188.4v-227.7h-156
		C1334.6,1081.9,1333,1083.4,1331.4,1085.1z"/>
	<g>
		<g>
			<path class="st7" d="M1613.6,1538.9c0,0-31.3,9.3-31.9,13.6c-0.6,4.3-1.2,8.1-1.2,8.1l57.9-2.6v-19.4L1613.6,1538.9z"/>
			<path class="st7" d="M1765.6,1518.6c0,0-22.3,23.8-20.7,27.8s3.1,7.6,3.1,7.6l48.7-31.4l-9.8-16.8L1765.6,1518.6z"/>
			<g>
				<path class="st4" d="M1509.8,1274.7c0,0-6,0.7-6.6-2.3s-9-16.9-12-15.9s-2.3,12.3,1.3,20.6c3.7,8.3,9.3,10,17.3,10.3
					C1517.8,1287.7,1509.8,1274.7,1509.8,1274.7z"/>
				<path class="st9" d="M1588.5,1240.9c0,0-26.1,11.5-27.1,0s27.4-48.3,48.8-36.4c0,0,14.9-7.5,24.4,3s15.9,59.3,15.9,59.3
					l-28.9-7.5C1621.7,1259.4,1597.7,1237.9,1588.5,1240.9z"/>
				<path class="st4" d="M1588.5,1240.9c0,0,4.7,22.5,10.3,26.2s20.6-2.3,23-2.8c2.3-0.5,9.8-7,9.8-7s-4.7-7.5-5.6-9.8
					s-24.8-20.1-30-15.9C1590.9,1235.8,1588.5,1240.9,1588.5,1240.9z"/>
				<path class="st3" d="M1510.1,1269.6v24.7l98.7,2.5c0,0,3.8,26.6,14.5,34.2s42.4,25.3,44.3,27.2c1.9,1.9,10.1,13.3,10.1,13.3
					l72.1-13.9c0,0,11.4-27.2-15.2-42.4c-18.1-10.3-45.4-32.9-61.2-46.3c-8.1-6.9-18.1-11.3-28.8-12.4l-18.2-2l-20.2,8.2l1.3,3.8
					L1510.1,1269.6z"/>
				<path class="st9" d="M1609.4,1539.7h43.6c0,0-13.3-53.8-1.9-68.3c11.4-14.5,43-40.5,43-40.5s7,33.5,19.6,47.4
					c12.6,13.9,46.2,44.3,46.2,44.3l34.2-19c0,0-53.8-31-49.3-65.1c4.4-34.2,5.1-83.5,5.1-83.5l-72.1,16.4c0,0-74,57.6-70.8,96.8
					C1610,1507.4,1609.4,1539.7,1609.4,1539.7z"/>
			</g>
		</g>
		<path class="st7" d="M1610.2,1297.5c-0.8,0-1.3,0-1.5,0l0-1.3c0.3,0,34.2,0.4,42.4-6.4c8.1-6.6,7.2-14.3,7.2-14.4l1.3-0.2
			c0,0.3,0.9,8.4-7.7,15.5C1644.4,1297.1,1617,1297.5,1610.2,1297.5z"/>
		
			<rect x="1571.6" y="1265.7" transform="matrix(0.9997 -2.538244e-02 2.538244e-02 0.9997 -31.6251 41.3055)" class="st7" width="79.4" height="1.3"/>
	</g>
	<g>
		<path class="st10" d="M425.1,1131.9c0,0,21.3,7.3,24.3,10s2,6,2,6l-51.6-0.5l1.8-15.8L425.1,1131.9z"/>
		<path class="st10" d="M313.5,1131.2c0,0,21.3,7.3,24.3,10c3,2.7,2,6,2,6l-49.5,0.2l-0.3-16.4L313.5,1131.2z"/>
		<path class="st11" d="M480.5,803.2c0,0,9,22.7,33.8,32.2L495.8,865l-19-21.1c0,0-4.7-20.6-4.7-24.3
			C472,815.9,480.5,803.2,480.5,803.2z"/>
		<path class="st10" d="M480.5,803.2l16.4,53.3l-30.1,11.6l4.7,9.5l-20,61.7c0,0-59.1,23.2-86-20.6
			C365.5,918.8,426.6,794.8,480.5,803.2z"/>
		<path class="st9" d="M451.4,939.3c0,0,34.8,68.1,26.9,88.6c-7.9,20.6-53.3,103.9-53.3,103.9h-28c0,0,26.9-89.7,25.8-105
			s-19.5-58-19.5-58s-14.8,60.1-41.1,92.3c-26.4,32.2-50.1,70.2-50.1,70.2s-26.9,2.6-26.4,0.5c0.5-2.1,42.2-99.7,51.7-132.9
			c9.5-33.2,18.9-57.4,28-80.2C374.2,896.8,451.4,939.3,451.4,939.3z"/>
		<path class="st3" d="M495.8,865c0,0,6.1,14.8,12.4,17.1c6.3,2.4,26.1,10.3,36.4,6.3s5.8-24.5,9-24.8l0,36.2c0,0-8.2,6.9-19.3,8.2
			c-11.1,1.3-53.8,11.1-63.8-31.4c0,0-9-13.5-8.2-14c0.8-0.5,22.2-5.5,22.2-5.5l7.4-0.8L495.8,865z"/>
		<path class="st3" d="M510.3,839.6c0,0,4.7,7.4,16.1,3.2c11.3-4.2,16.1-10.8,19.5-20.6s6.6-28.5,6.6-29.5c0-1.1-1.8-19.5,1.6-17.4
			c3.4,2.1,2.1,17.4,2.1,17.4s8.4-5.3,8.4-1.8s-7.6,11.1-8.4,12.1s-2.5,52.1-2.5,52.1s-20.4,29.9-57.1,5.4L510.3,839.6z"/>
		<path class="st3" d="M480.5,803.2c0,0,24-28.7,28-30.4c4-1.7,24.9-3,27.2,6.3s-2.7,31.9-7.6,36.5c-5,4.6-11.6,9.6-16.9,9.6
			c-5.3,0-12.6-3.3-12.6-3.3l-10,8L480.5,803.2z"/>
		<path class="st9" d="M515.8,784.8c0,0-4.6,20.6-7.6,14.6s4.6-13.9-2-15.3c-6.6-1.3-13,5.3-11.3,10c1.7,4.6-13.6,7.6-13.6,7.6
			s4.3-39.5,21.3-41.8c16.9-2.3,44.2,0,44.2,5.3S536,788.2,536,788.2L515.8,784.8z"/>
	</g>
	<g>
		<g>
			<path class="st12" d="M1094.1,1065.1c0,0-30.9,9.3-31.6,11.6c-0.7,2.3,0.8,4.2,0.8,4.2l53.5-1l-3.2-16.2L1094.1,1065.1z"/>
			<path class="st4" d="M1112.1,1052.5l1.3,9.4c0.5,3.7-2.4,6.9-6,6.9l-7.5-0.1c-3,0-5.5-2.2-5.9-5.1l-1.7-10.7L1112.1,1052.5z"/>
		</g>
		<g>
			<path class="st12" d="M1146.9,1064.1c0,0-28.5,15.1-28.8,17.6s1.6,3.9,1.6,3.9l52.3-11.4l-6.3-15.3L1146.9,1064.1z"/>
			<path class="st4" d="M1162.1,1048.2l3.1,8.9c1.2,3.5-1,7.2-4.6,7.9l-7.4,1.4c-2.9,0.6-5.8-1.1-6.8-3.9l-3.7-10.2L1162.1,1048.2z"
				/>
		</g>
		<path class="st4" d="M1095,878.6c0,0-8.7-4-9.7-1.2s1.9,5.5,1.1,5.3c-0.8-0.2-4.5,2.4-7.7,1.6s-4.2,8.4,5.4,7.9
			c9.6-0.5,50.6-26,50.6-26l-2.1-10.7l-14,8.5L1095,878.6z"/>
		<path class="st4" d="M1080.2,864.5c0,0-8-5.3-9.4-2.7c-1.4,2.6,1,5.7,0.3,5.4c-0.7-0.3-4.9,1.7-7.8,0.4c-3-1.3-5.4,7.6,4.2,8.6
			s54-17.9,54-17.9l-0.4-10.9l-15.1,6.3L1080.2,864.5z"/>
		<path class="st13" d="M1164.6,846.5c0,0-28.4,19.7-29.6,20c-1.2,0.2-4.9-0.5-5.6-7.1s34.5-37.6,34.5-37.6s10.5,3.4,10.7,6.8
			c0.2,3.4,2.2,12.6,0.8,14.7C1174.1,845.4,1164.6,846.5,1164.6,846.5z"/>
		<path class="st14" d="M1143.2,890.7c0,0-54.1,40.9-56.5,71.2c-2.4,30.3,2.6,91.4,2.6,91.4l32.3-1.1l-4-82.2l32.8-27.1l-20.3,29.9
			l9.8,82.8l34.1-6.1c0,0-16.2-59.3-8.9-72.2c7.3-12.9,35.9-45.8,35.9-45.8s21.5-30.9,7.7-40.6
			C1194.8,881.3,1143.2,890.7,1143.2,890.7z"/>
		<path class="st12" d="M1165.9,756.7c0,0-5.8-10.8-1.8-17.3c4-6.5,14.8-13.1,29.8-2.6c15,10.5,38.2,38.8,66.3,50.8
			c28.1,12,13.3,56.1-24.2,37.2s-62.4-38.1-62.4-38.1L1165.9,756.7z"/>
		<path class="st7" d="M1174.2,792.2c0,0-13.8,1-20.2,13.8c-6.5,12.8-14.5,25.8-28,33.2s-4.5,19.2-4.5,19.2s38.4-16,45.4-24.7
			c0,0-16.6,50-23.6,57.1c0,0,47.4,24.1,72.2,3.6c2.8-2.7-16.2-89.5-16.2-89.5S1189.6,785.6,1174.2,792.2z"/>
		<path class="st4" d="M1169.6,794.5l-0.9-12.2c0,0-13.7-1.7-11.8-8s10.5-26.4,10.5-26.4s11.7,3.6,11.7,9.9c0,6.3-0.2,8.5-0.2,8.5
			s5.2-2.8,5.3,2.3c0.1,5.1-5.9,8-5.9,8l2,15L1169.6,794.5z"/>
	</g>
	<g>
		<path class="st4" d="M1477.5,745.6c0,13.3-8.8,24.2-19.8,24.2s-15.9-12.6-15.9-25.9s5-22.4,15.9-22.4S1477.5,732.3,1477.5,745.6z"
			/>
		<g>
			<g>
				<path class="st4" d="M1430.6,1056.2l-1.4,11.8c0,0,3.5,7.8,5.3,8c1.8,0.2,4.5,1.6,5.7,0.4c1.2-1.2,2.9-7.1,2.9-7.1l1.8-11.8
					L1430.6,1056.2z"/>
				<path class="st12" d="M1443,1069.3l0.8,15.5l-43.7-0.8c0,0-1.2-4.9,6.5-6.5c7.8-1.6,22.4-9.4,22.4-9.4
					S1433.6,1075.4,1443,1069.3z"/>
			</g>
			<g>
				<path class="st4" d="M1541.1,1058.8l1.5,11.8c0,0,5.3,6.7,7.1,6.4c1.8-0.3,4.8,0.5,5.6-1c0.9-1.5,1-7.6,1-7.6l-1.1-11.9
					L1541.1,1058.8z"/>
				<path class="st12" d="M1556.3,1068.4l4.6,14.8l-42.5,9.9c0,0-2.4-4.4,4.7-7.9c7.1-3.5,19.5-14.6,19.5-14.6
					S1548.7,1076.6,1556.3,1068.4z"/>
			</g>
			<path class="st12" d="M1485.7,915.5l45.7,149.1l26.1,1.1l-42.4-186.1l-65.3-7.6c0,0-39.2,150.2-28.3,183.9l24.8,3.3
				C1446.3,1059.1,1467.6,921.6,1485.7,915.5z"/>
			<path class="st6" d="M1452.8,762c0,0-60.4-13.1-67.7-43.3l-15.5,7.3c0,0,22.9,46.5,44.9,56.3c22,9.8,22.9,26.9,22.9,30.2
				c0,3.3,3.3,60.4,3.3,60.4s18.8,11.4,47.3,11.4s31.8-4.9,31.8-4.9l-21.2-90.6c0,0,33.5-44.1,21.2-80l-13.1-2.4
				C1506.7,706.5,1495.2,774.3,1452.8,762z"/>
		</g>
		<path class="st12" d="M1441.2,731.8c0,0,17.6,2.2,18.7,8.8c1.1,6.6-4.4,11,0.5,11s5.5-10.4,8.8-5.5c3.3,4.9-2.2,12.1-2.2,12.1
			l4.4,6c0,0,15.9-6.6,15.9-25.3s-14.8-28.5-26.4-25.8C1449.5,715.8,1436.3,713.1,1441.2,731.8z"/>
	</g>
	<g>
		<path class="st15" d="M714.3,1092.1c0,0,21.2-40.1-3.5-49.5s-51.8,2.4-63.6,34.2c-11.8,31.8-10.6,30.6-25.9,44.8
			c-15.3,14.1-28.3,3.5-31.8,30.6s-18.8,21.2-17.7,44.8c1.2,23.6-2.4,33,37.7,36.5s61.3-1.2,69.5-14.1c8.2-13,17.7-68.3,17.7-78.9
			s1.2-25.9,1.2-25.9L714.3,1092.1z"/>
		<path class="st6" d="M712.3,1127.7c0,0,11.6-1.8,16.3,6.4c4.7,8.2,20.7,33.4,20.7,33.4l-22.8,0.8l-14.1-25.1L712.3,1127.7z"/>
		<path class="st16" d="M675,1134.4c0-1.5,1.5-26.5,1.5-26.5s-6.7-5.5-7.3-9.7c0,0-9.4,0-7.6-9.1c1.8-9.1,9.7-3,9.7-3l2.7,5.5
			c0,0,3-8.8,12.5-12.8c9.4-4,11.6-9.4,11.6-9.4s11.9,8.8,13.7,14.9c1.8,6.1,4.3,21.3-2.1,29.2c-6.4,7.9-11.9,5.2-11.9,5.2l1.2,13.4
			l0.6,23.1l-24.3-18L675,1134.4z"/>
		<path class="st8" d="M661.1,1226.6h65.6c0,0,8.5-52,0.9-67.3s-15.3-31.5-15.3-31.5l-13.6-0.9v24.7l-23.9-20.5l-18.8,1.7l-8.5,40.9
			L661.1,1226.6z"/>
		<path class="st3" d="M661.1,1226.6c0,0-28.7,59.4-24.2,113.9s-0.6,202.9-0.6,202.9l32.4-0.6l27.3-206.8l54,209.7h29
			c0,0-28.4-280.7-54.6-318.8L661.1,1226.6z"/>
		<path class="st6" d="M656,1132.8c0,0-52.8,68.2-49.4,81c3.4,12.8,13.6,17,29,10.2c15.3-6.8,43.5-19.6,43.5-19.6l-2.6-11.9
			l-17.9-1.7l11.9-29C670.5,1161.8,677.3,1130.3,656,1132.8z"/>
		<polygon class="st15" points="711.4,1162.7 682.4,1236 731,1237.7 764.3,1167.8 		"/>
		<path class="st16" d="M748.9,1176.3c0,0-9.4,14.5-1.7,20.5c7.7,6,9.1,2.3,9.1,2.3l9.7-20.5C766,1178.6,758,1168.1,748.9,1176.3z"
			/>
		<path class="st16" d="M676.5,1192.5c0,0,21.7-10.9,27.2-6.1c5.5,4.7,5.1,12.6,5.1,12.6l-29.8,5.5L676.5,1192.5z"/>
		<path class="st15" d="M669.1,1542.9c0,0,5.6,9.4,18.9,9.4c13.4,0,18.8,6.3,18.8,6.3l0.8,8.6l-55.8-10.2v10.2h-11l-0.8-24.3H669.1z
			"/>
		<path class="st15" d="M779.4,1545.7c0,0,5.6,9.4,18.9,9.4c13.4,0,18.8,6.3,18.8,6.3l0.8,8.6l-55.8-10.2v10.2h-11l-0.8-24.3H779.4z
			"/>
	</g>
	<g>
		<path class="st15" d="M717.8,662.2l-27.7-0.2c0,0-4.2,1.7-1.9,3.9c2.2,2.2,25.1,11.1,25.1,13.6c0,2.5-0.6,9.2-0.6,9.2l4.5,1.9
			c0,0,15.8-24.6,14.7-24.6C730.7,666.1,717.8,662.2,717.8,662.2z"/>
		<path class="st15" d="M825.4,664.3l-14.2,26.3c0,0-0.8,4.4,2.2,3.7c3.1-0.7,22.8-15.2,25-13.8s7.5,5.4,7.5,5.4l4-2.7
			c0,0-12.3-26.5-12.9-25.6C836.4,658.5,825.4,664.3,825.4,664.3z"/>
		<path class="st17" d="M795.5,592.4c0,0,22.3,29.9,32.4,48c10,18.2,11.3,20.7,11.3,20.7l-13.8,4.4c0,0-46.4-44.5-47.6-60.1
			c-1.3-15.7,10-33.2,10-33.2L795.5,592.4z"/>
		<path class="st15" d="M846.1,446c0,0,6.1,10.9,5.6,19.6c-0.4,8.8-4,13.2-4,13.2s23.6,9.8,36.5,0.6s11.9-13.8,11.9-13.8
			s0-12.1-9.2-21.9s-24.9-12.9-26.3-7.9C860.7,435.8,844.6,441,846.1,446z"/>
		<path class="st4" d="M865.3,484.5l-2.4-12.3h16.7l3.1,17.5c0,0-12,2.2-13.4,1.7C867.9,490.9,865.3,484.5,865.3,484.5z"/>
		<path class="st7" d="M803.7,551.7h-17.5c0,0-69.5,110.9-68.7,110.9s14.4,4.2,14.4,4.2l48.5-47l15.2-27.4l49.5,14.8h51
			c0,0,12.7-23.4-1.5-52L803.7,551.7z"/>
		<path class="st10" d="M920.4,534.6c-0.4-4.6-15.5-42.2-20-46.4c-4.6-4.2-18.8-3.8-18.8-3.8c-8.8,7.5-16.3,0-16.3,0l-15,6.7
			l-10.9,30.1l-2.5,30.1l36.5,5.7l21.2,0.6c0,0,21.7-2.1,26.3-5.8S920.8,539.2,920.4,534.6z M897.7,542c0,0-0.4-7.9,0.6-10.7v-0.6
			l5.3,9.1L897.7,542z"/>
		<polygon class="st8" points="783.4,517.3 842.3,517.1 859.6,556.7 879.9,556.9 879.9,560.1 801.6,560.1 		"/>
		<path class="st4" d="M852.5,453.6c0,0,0,14.8,6.3,20c6.3,5.2,10.9,6.9,15.2,4.8c4.4-2.1,7.3-4.6,9-14.2c0,0,3.1-0.4,3.1-5.6
			c0-5.2-5.4-6.1-5.6-3.1l-0.4,2.5c0,0-4.8-0.8-7.3-6.3c-2.5-5.4-10.7-8.1-10.7-8.1S858.2,452.7,852.5,453.6z"/>
		<path class="st4" d="M873.8,546.1l0.2,10.7h-7.4c0,0-1.7-1.2-2.9-1.3c-1.1-0.1-4.5,0.7-4.5,0.7l-2-4.3c0,0,4.9-3.3,6.1-3.7
			c1.2-0.3,3.8,0.1,4.5,0.1C868.6,548.3,872.1,549.2,873.8,546.1z"/>
		
			<rect x="873.7" y="544" transform="matrix(0.9883 -0.1524 0.1524 0.9883 -72.5911 141.229)" class="st15" width="23.2" height="0.5"/>
		<path class="st15" d="M853,538.6l-0.5-0.1c0-0.1,1.2-8.1-2.3-13c-3.4-4.9-3.3-9.9-1.2-12c1.4-1.4,3.6-10.5,4.5-15.1l0.5,0.1
			c-0.1,0.5-2.8,13.5-4.7,15.4c-1.6,1.6-2.3,6.2,1.3,11.3C854.2,530.3,853.1,538.3,853,538.6z"/>
		<circle class="st15" cx="815.3" cy="534.9" r="4.7"/>
	</g>
	<g>
		<g>
			<circle class="st15" cx="419.5" cy="1526.9" r="24"/>
			<circle class="st8" cx="419.5" cy="1526.9" r="15.7"/>
		</g>
		<g>
			<circle class="st15" cx="298.1" cy="1526.9" r="24"/>
			<circle class="st8" cx="298.1" cy="1526.9" r="15.7"/>
		</g>
		<path class="st8" d="M419.7,1488.8H297.1l50-19.9l-96.5-34.7l93.8-35.5l-95.1-34.3l92.4-32.8l-89.9-32.8l91.5-34.1l-89.1-33.3
			l90.6-34.3l-82.8-30.3l2-5.5l89.1,32.7l89.1-33.8l2.1,5.5l-82.8,31.4l90.8,33.3l-92.4,34.5l91.4,34.2l-92.4,32.9l91.2,33.3
			l-88.8,33.6l93.7,33.7l-91.3,36.3L419.7,1488.8z M327.7,1483H386l-30.6-11L327.7,1483z M267.5,1434.2l87.8,31.5l83.1-33
			l-85.6-30.8L267.5,1434.2z M266.6,1364.6l86.2,31l80.4-30.4l-83-30.3L266.6,1364.6z M268.7,1298.8l81.6,29.8l83.9-29.9l-82.6-30.9
			L268.7,1298.8z M270.8,1231.4l80.8,30.2l83.9-31.3l-82.3-30.1L270.8,1231.4z"/>
		<rect x="215.8" y="1147.9" class="st15" width="272.6" height="21"/>
		<rect x="246.5" y="1479" class="st15" width="211.2" height="38.9"/>
	</g>
</g>
</svg>
